Coordinates
version=1
nRows=13
nColumns=36
inDegrees=yes

Units are S.I. units (second, meters, Newtons, ...)
If the header above contains a line with 'inDegrees', this indicates whether rotational values are in degrees (yes) or radians (no).

endheader
time	pelvis_tilt	pelvis_list	pelvis_rotation	pelvis_tx	pelvis_ty	pelvis_tz	hip_flexion_r	hip_adduction_r	hip_rotation_r	knee_angle_r	knee_angle_r_beta	ankle_angle_r	subtalar_angle_r	mtp_angle_r	hip_flexion_l	hip_adduction_l	hip_rotation_l	knee_angle_l	knee_angle_l_beta	ankle_angle_l	subtalar_angle_l	mtp_angle_l	lumbar_extension	lumbar_bending	lumbar_rotation	arm_flex_r	arm_add_r	arm_rot_r	elbow_flex_r	pro_sup_r	arm_flex_l	arm_add_l	arm_rot_l	elbow_flex_l	pro_sup_l
      0.00000000	      2.02885368	     -2.00697974	      1.20359437	      0.77104347	      0.91027574	      0.02657623	     11.33698694	     -0.14590271	     -6.19230740	     58.46705847	      1.02044267	     -2.22087032	    -13.00746581	     -5.94840676	      2.18382649	      4.29578321	      5.85320398	     16.75573183	      0.29244269	     11.05662177	     -9.19585086	     -5.94840676	     -3.47467460	     -2.36920651	     -2.84050168	     27.48943203	      9.10096907	     63.46656098	    111.17232187	     91.08302066	     30.64848613	      0.86456618	     65.27130640	    119.13990663	     87.10219268
      0.01666670	      2.82740642	     -2.01114605	      1.58021587	      0.76917046	      0.90920781	      0.02711818	     12.07708544	     -0.61358066	     -7.39209090	     59.42961899	      1.03724252	     -1.50730330	    -11.94101481	     -6.12962517	      0.09564128	      4.24270446	      7.55883555	     15.66923616	      0.27347976	     12.59711729	    -10.01282490	     -6.12962517	     -5.25036883	     -3.09887037	     -3.64419040	     31.82690910	      6.35499041	     72.22024304	    117.56762754	    102.20760057	     33.09116310	     -0.84693610	     62.28252195	    124.23579318	    105.82430846
      0.03333330	      2.24206847	     -2.14119228	      1.43003745	      0.76888320	      0.90877758	      0.02747707	     13.70929674	     -1.05268036	     -8.21632743	     59.95481407	      1.04640891	      1.03262452	     -9.83460352	     -6.26538108	     -0.06537390	      4.08536441	      7.64206886	     14.89486095	      0.25996437	     11.81999635	    -10.48979828	     -6.26538108	     -4.73877039	     -3.55069059	     -4.19213279	     31.49560249	      6.71620809	     72.02479353	    119.34470968	    104.61921217	     33.23020159	     -1.94314387	     62.73138805	    125.04528831	    109.20432226
      0.05000000	      2.07460432	     -2.34372916	      1.81153711	      0.76966490	      0.90815955	      0.02671932	     14.23042703	     -1.15570403	     -9.33887292	     59.77751645	      1.04331448	      2.79429614	     -9.38020615	     -6.34436915	     -0.49711524	      3.93848225	      7.54668713	     14.28424897	      0.24930718	     11.79138529	    -10.35135897	     -6.34436915	     -4.57238167	     -3.66799341	     -4.70975904	     31.09289233	      7.12361500	     71.69191812	    119.91683438	    104.46075028	     33.58648424	     -2.03554112	     63.25360416	    125.18503962	    109.07410115
      0.06666670	      1.85894576	     -2.65475822	      1.82359825	      0.77067886	      0.90723762	      0.02599327	     14.51564965	     -0.84785483	     -9.82294860	     59.05228470	      1.03065680	      3.63622401	     -9.68314831	     -6.40975272	     -0.82720883	      3.73867273	      7.22487932	     13.63549837	      0.23798434	     11.97651504	    -10.34774886	     -6.40975272	     -4.18849802	     -3.38531447	     -4.68737189	     30.76599259	      7.28083272	     71.46359490	    120.10140974	    103.83361766	     33.70557812	     -1.69541401	     63.49602002	    124.88533701	    108.15697337
      0.08333330	      1.65843654	     -3.02400281	      1.92109789	      0.77183141	      0.90631380	      0.02508234	     14.51569422	     -0.31341292	    -10.13122844	     58.00429570	      1.01236594	      4.23437999	    -10.59008063	     -6.63383867	     -1.03643016	      3.49295664	      7.08433199	     13.14986856	      0.22950850	     12.17937490	    -10.11398645	     -6.63383867	     -3.79197499	     -3.00387010	     -4.56048779	     30.42357247	      7.27141227	     71.01739851	    120.22962014	    104.62180500	     33.99673107	     -0.94996522	     63.66790388	    124.22957715	    109.03452391
      0.10000000	      1.51055578	     -3.50873397	      2.00731602	      0.77314327	      0.90489744	      0.02424242	     14.23483410	      0.44689989	    -10.32856409	     56.58256330	      0.98755203	      4.56018434	    -11.63293860	     -6.76085087	     -1.24405979	      3.10114175	      7.08556266	     12.70538241	      0.22175076	     12.15160667	    -10.06881066	     -6.76085087	     -3.45201550	     -2.39495063	     -4.61568974	     30.22558159	      7.24621306	     70.56987257	    120.43314152	    104.35564825	     34.36419803	     -0.34630143	     63.74307367	    123.74499402	    108.03144611
      0.11666670	      1.30636332	     -3.97096838	      2.16163136	      0.77444948	      0.90350402	      0.02343084	     13.89648993	      1.16345382	    -10.59877748	     55.16760158	      0.96285629	      4.98451421	    -12.17291157	     -6.79108157	     -1.26845719	      2.70853139	      7.15800650	     12.38120815	      0.21609285	     12.17129789	     -9.77708206	     -6.79108157	     -3.07652209	     -1.78831165	     -5.04356345	     30.29108786	      7.25629596	     70.41569572	    120.55527942	    102.44940193	     34.81905704	     -0.03950028	     63.80045952	    123.53691835	    105.32133602
      0.13333330	      1.63673448	     -4.39981222	      2.32017564	      0.77532284	      0.90420835	      0.02276759	     12.86593665	      1.93864208	    -10.71374777	     53.61236223	      0.93571224	      4.44134913	    -13.45143886	     -6.88519387	     -1.78762965	      2.32692923	      7.46755051	     12.13559388	      0.21180607	     11.91682922	    -10.07853002	     -6.88519387	     -3.37838394	     -1.20068476	     -5.31597508	     30.33850958	      7.25612413	     69.68826085	    120.59848667	    102.94380481	     35.49411370	      0.30970356	     63.47202832	    123.02194881	    106.37771606
      0.15000000	      1.80064137	     -4.67148524	      2.40797937	      0.77595320	      0.90608328	      0.02224996	     12.04289384	      2.45420524	    -10.82606879	     52.18643471	      0.91082511	      4.14748324	    -13.95495242	     -7.13136151	     -2.04430499	      2.09122147	      7.59725184	     11.96895470	      0.20889767	     11.78230714	     -9.89108947	     -7.13136151	     -3.53294103	     -0.81617718	     -5.48802629	     30.31377819	      7.15038469	     69.36843342	    120.61044147	    101.95376942	     35.71201133	      0.44796186	     63.44092039	    122.63595823	    106.38136206
      0.16666670	      2.16576250	     -4.83036381	      2.39436078	      0.77622105	      0.90802048	      0.02201608	     11.03050089	      2.87795363	    -10.72719230	     50.86436749	      0.88775068	      3.83932476	    -14.52504331	     -7.19711591	     -2.48049125	      1.95511167	      7.54826853	     11.85277694	      0.20686998	     11.59786736	     -9.71992275	     -7.19711591	     -3.93296696	     -0.56152341	     -5.34499123	     30.18569371	      7.01216420	     69.02914088	    120.64826422	    101.54621209	     35.70539557	      0.54561162	     63.48209390	    122.23434587	    105.96087091
      0.18333330	      2.54170113	     -4.88677648	      2.29274197	      0.77635405	      0.90859391	      0.02189201	     10.08092202	      3.15236813	    -10.54055640	     49.79394213	      0.86906824	      3.63763891	    -15.08974179	     -7.24809426	     -2.88202140	      1.94705986	      7.42160540	     11.85344837	      0.20688170	     11.37610428	     -9.70415257	     -7.24809426	     -4.31198608	     -0.42036812	     -5.07688884	     30.03097712	      6.84799647	     68.63985142	    120.67776925	    101.24877639	     35.52959277	      0.68471295	     63.48246126	    121.82720999	    105.63872017
      0.20000000	      2.96479929	     -4.89289863	      2.14761526	      0.77637613	      0.90806626	      0.02186767	      9.17574334	      3.34419728	    -10.28091330	     48.89412665	      0.85336349	      3.54594940	    -15.76439254	     -7.29139765	     -3.32199748	      1.99131030	      7.23731567	     11.90213551	      0.20773145	     11.09812849	     -9.77132581	     -7.29139765	     -4.76191045	     -0.35156851	     -4.81232149	     29.99672471	      6.69964035	     68.17101288	    120.71899213	    100.16471609	     35.56403499	      0.93888654	     63.50170926	    121.43187050	    104.75910844
